# xmcd
#
# Track frame offsets:
#	150
#	15722
#	38237
#	64657
#	76025
#	90082
#	112395
#	123752
#	137637
#	154287
#	171152
#	179135
#	191875
#	212655
#
# Disc length: 3049 seconds
#
# Revision: 1
# Processed by: cddbd v1.5PL3 Copyright (c) Steve Scherf et al.
# Submitted via: MusicWizard 6.0.1
#
DISCID=be0be70e
DTITLE=Alexis Korner - best of
DYEAR=1900
DGENRE=Blues
TTITLE0=Hoochie Coochie Man-
TTITLE1=Honky Tonk Woman-
TTITLE2=Rock Me-
TTITLE3=I See It-
TTITLE4=Corina Corina-
TTITLE5=Louisiana Blues-
TTITLE6=Everyday I Have The Blues
TTITLE7=East St. Louis Blues-
TTITLE8=Louise -
TTITLE9=Hammer And Nails-
TTITLE10=Polly Put The Kettle On-
TTITLE11=Santa Fè Blues -
TTITLE12=Operator-
TTITLE13=I Got A Woman-
EXTD=
EXTT0=
EXTT1=
EXTT2=
EXTT3=
EXTT4=
EXTT5=
EXTT6=
EXTT7=
EXTT8=
EXTT9=
EXTT10=
EXTT11=
EXTT12=
EXTT13=
PLAYORDER=
